<svg width="73" height="48" viewBox="0 0 73 48" fill="none" xmlns="http://www.w3.org/2000/svg">
<g clip-path="url(#clip0_5309_1333)">
<path d="M0.316406 -0.00976562H72.3164V47.9902H0.316406V-0.00976562Z" fill="#E30A17" style="fill:#E30A17;fill:color(display-p3 0.8902 0.0392 0.0902);fill-opacity:1;"/>
<path d="M36.7652 16.6357C34.9266 15.3024 32.695 14.5866 30.4073 14.6007C24.681 14.6007 20.0494 18.9235 20.0494 24.2708C20.0494 29.6182 24.695 33.941 30.4073 33.941C32.8073 33.941 35.0248 33.1831 36.7652 31.9059C32.5547 37.3235 24.7371 38.3059 19.3196 34.0814C13.902 29.8568 12.9196 22.0533 17.1441 16.6357C21.3687 11.2182 29.1722 10.2357 34.5897 14.4603C35.4038 15.0919 36.1336 15.8357 36.7652 16.6357ZM42.3652 25.8708L39.8248 28.9445L39.9933 24.9586L36.288 23.4989L40.1196 22.4322L40.3722 18.4603L42.5617 21.7866L46.4213 20.7901L43.9652 23.8779L46.1125 27.2323L42.3652 25.8708Z" fill="white" style="fill:white;fill-opacity:1;"/>
</g>
<defs>
<clipPath id="clip0_5309_1333">
<rect width="71.9999" height="48" fill="white" style="fill:white;fill-opacity:1;" transform="translate(0.316406 -0.00976562)"/>
</clipPath>
</defs>
</svg>
