<svg width="73" height="48" viewBox="0 0 73 48" fill="none" xmlns="http://www.w3.org/2000/svg">
<g clip-path="url(#clip0_5309_1344)">
<path d="M0.5 0H72.5V48H0.5V0Z" fill="white" style="fill:white;fill-opacity:1;"/>
<path d="M0.5 0H72.5V3.69123H0.5V0ZM0.5 7.38246H72.5V11.0737H0.5V7.38246ZM0.5 14.7649H72.5V18.4561H0.5V14.7649ZM0.5 22.1474H72.5V25.8386H0.5V22.1474ZM0.5 29.5439H72.5V33.2351H0.5V29.5439ZM0.5 36.9263H72.5V40.6175H0.5V36.9263ZM0.5 44.3088H72.5V48H0.5V44.3088Z" fill="#D80027" style="fill:#D80027;fill:color(display-p3 0.8471 0.0000 0.1529);fill-opacity:1;"/>
<path d="M0.5 0H36.5V25.8386H0.5V0Z" fill="#2E52B2" style="fill:#2E52B2;fill:color(display-p3 0.1804 0.3216 0.6980);fill-opacity:1;"/>
<path d="M7.20931 19.4946L6.64791 17.6981L6.03037 19.4946H4.17773L5.67949 20.5753L5.11809 22.3718L6.64791 21.263L8.13563 22.3718L7.56019 20.5753L9.09001 19.4946H7.20931ZM15.1111 19.4946L14.5356 17.6981L13.9462 19.4946H12.0935L13.5953 20.5753L13.0339 22.3718L14.5356 21.263L16.0514 22.3718L15.49 20.5753L16.9918 19.4946H15.1111ZM23.0409 19.4946L22.4374 17.6981L21.876 19.4946H19.9812L21.5251 20.5753L20.9356 22.3718L22.4374 21.263L23.9812 22.3718L23.3918 20.5753L24.8935 19.4946H23.0409ZM30.9286 19.4946L30.3672 17.6981L29.7777 19.4946H27.9111L29.4269 20.5753L28.8655 22.3718L30.3672 21.263L31.883 22.3718L31.2795 20.5753L32.8233 19.4946H30.9286ZM14.5356 10.5683L13.9462 12.3648H12.0935L13.5953 13.4736L13.0339 15.242L14.5356 14.1473L16.0514 15.242L15.49 13.4736L16.9918 12.3648H15.1111L14.5356 10.5683ZM6.64791 10.5683L6.03037 12.3648H4.17773L5.67949 13.4736L5.11809 15.242L6.64791 14.1473L8.13563 15.242L7.56019 13.4736L9.09001 12.3648H7.20931L6.64791 10.5683ZM22.4374 10.5683L21.876 12.3648H19.9812L21.5251 13.4736L20.9356 15.242L22.4374 14.1473L23.9812 15.242L23.3918 13.4736L24.8935 12.3648H23.0409L22.4374 10.5683ZM30.3672 10.5683L29.7777 12.3648H27.9111L29.4269 13.4736L28.8655 15.242L30.3672 14.1473L31.883 15.242L31.2795 13.4736L32.8233 12.3648H30.9286L30.3672 10.5683ZM6.64791 3.46655L6.03037 5.23497H4.17773L5.67949 6.34375L5.11809 8.1262L6.64791 7.01743L8.13563 8.1262L7.56019 6.34375L9.09001 5.23497H7.20931L6.64791 3.46655ZM14.5356 3.46655L13.9462 5.23497H12.0935L13.5953 6.34375L13.0339 8.1262L14.5356 7.01743L16.0514 8.1262L15.49 6.34375L16.9918 5.23497H15.1111L14.5356 3.46655ZM22.4374 3.46655L21.876 5.23497H19.9812L21.5251 6.34375L20.9356 8.1262L22.4374 7.01743L23.9812 8.1262L23.3918 6.34375L24.8935 5.23497H23.0409L22.4374 3.46655ZM30.3672 3.46655L29.7777 5.23497H27.9111L29.4269 6.34375L28.8655 8.1262L30.3672 7.01743L31.883 8.1262L31.2795 6.34375L32.8233 5.23497H30.9286L30.3672 3.46655Z" fill="white" style="fill:white;fill-opacity:1;"/>
</g>
<defs>
<clipPath id="clip0_5309_1344">
<rect width="72" height="48" fill="white" style="fill:white;fill-opacity:1;" transform="translate(0.5)"/>
</clipPath>
</defs>
</svg>
